<svg width="341" height="341" viewBox="0 0 341 341" fill="none" xmlns="http://www.w3.org/2000/svg">
<mask id="mask0_266_2282" style="mask-type:alpha" maskUnits="userSpaceOnUse" x="0" y="0" width="341" height="341">
<circle cx="170.5" cy="170.5" r="170.5" fill="#D9D9D9"/>
</mask>
<g mask="url(#mask0_266_2282)">
<path d="M222.623 290.346L253.989 558.197H190.677L159.014 296.739" fill="#19181E"/>
<path d="M204.23 558.197L170.289 296.739" stroke="#3C3A49" stroke-miterlimit="10"/>
<path d="M201.862 336.367H223.758L226.369 352.934C226.369 352.934 220.102 358.543 216.302 357.754C212.502 356.966 204.448 354.512 204.474 353.723C204.5 352.934 201.862 336.367 201.862 336.367Z" stroke="#3C3A49" stroke-miterlimit="10"/>
<path d="M116.038 290.346L99.4189 558.197H169.421L186.368 296.739" fill="#19181E"/>
<path d="M127.917 290.346L111.298 558.197" stroke="#3C3A49" stroke-miterlimit="10"/>
<path d="M136.031 290.346L119.412 558.197" stroke="#3C3A49" stroke-miterlimit="10"/>
<path d="M170.868 336.367H146.558L145.185 354.287C145.185 354.287 154 360.669 158.219 359.816C162.438 358.963 169.523 355.994 169.494 355.141C169.465 354.287 170.868 336.367 170.868 336.367Z" stroke="#3C3A49" stroke-miterlimit="10"/>
<path d="M177.366 109.75L196.106 124.282L196.246 152.717H151.926L158.392 126.736" fill="#FFD1A6"/>
<path d="M142.688 118.143C143.259 109.198 147.251 99.4991 149.94 92.8293C152.834 85.6485 157.299 80.5504 164.905 78.1503C175.251 74.8848 186.608 79.4664 191.18 87.591C195.172 94.6853 194.36 103.479 190.474 110.903C187.241 117.079 182.68 123.365 175.955 126.887C169.232 130.408 158.603 134.245 151.226 132.349C143.765 130.43 142.308 124.072 142.688 118.143Z" fill="#FFD1A6"/>
<path d="M166.59 95.4423C165.733 90.7961 162.976 87.8054 159.992 87.1748" stroke="black" stroke-width="0.75" stroke-miterlimit="10"/>
<path d="M157.164 95.3364C156.546 96.5976 156.827 98.003 157.792 98.4756C158.756 98.9481 160.039 98.3093 160.657 97.0482C161.276 95.787 160.994 94.3817 160.03 93.9091C159.065 93.4365 157.782 94.0753 157.164 95.3364Z" fill="black"/>
<path d="M150.231 95.9066C148.088 99.1103 144.652 101.645 141.879 104.294C141.232 104.912 140.569 105.549 140.189 106.358C139.569 107.675 144.666 110.756 144.666 110.756" fill="#FFD1A6"/>
<path d="M179.321 108.213C181.431 111.196 183.345 117.824 185.671 120.644C186.704 121.896 188.181 121.598 189.605 121.897C191.922 122.384 193.154 123.703 195.598 122.402C199.388 120.385 202.405 116.187 204.159 112.382C205.581 109.298 206.46 106.001 207.131 102.681C207.691 99.9002 208.692 96.7776 208.409 93.9324C208.084 90.6738 206.084 87.8589 204.153 85.2157C203.055 83.7142 201.946 82.1989 200.56 80.9583C199.769 80.2508 198.844 79.5681 198.552 78.546C198.384 77.9635 198.449 77.3425 198.41 76.7381C198.286 74.7859 196.977 72.9574 195.169 72.2114C193.361 71.4641 191.144 71.8364 189.678 73.1305C189.158 73.5907 188.571 74.2048 187.898 74.0276C187.468 73.9149 187.192 73.5069 186.968 73.1236C185.801 71.1151 185.003 68.8951 183.69 66.9786C182.377 65.0622 180.36 63.4109 178.037 63.3724C174.127 63.3079 171.341 67.6339 167.45 68.0227C165.276 68.2398 163.207 67.1806 161.193 66.3302C159.179 65.4812 156.817 64.8314 154.868 65.8192C153.093 66.7176 152.156 68.8126 152.175 70.8005C152.194 72.7898 153.02 74.6842 154.019 76.4056C156.318 80.3717 159.562 83.6894 162.773 86.9632C165.116 89.3536 167.459 91.7426 169.802 94.133C173.003 97.3971 174.931 101.744 177.497 105.567C178.094 106.457 178.703 107.339 179.321 108.213Z" fill="#2C2C3A"/>
<path d="M174.593 108.319C176.547 104.906 182.901 104.708 185.512 107.46C191.792 114.075 182.006 125.931 174.144 123.507C171.92 122.822 169.422 120.562 169.898 118" fill="#FFD1A6"/>
<path d="M182.869 113.631L173.111 115.956" stroke="black" stroke-width="0.75" stroke-miterlimit="10"/>
<path d="M180.318 105.816C178.197 105.912 176.11 106.665 174.416 107.945" stroke="black" stroke-width="0.75" stroke-miterlimit="10"/>
<path d="M184.004 120.613C181.473 122.922 177.815 124.865 174.323 123.719C171.899 122.924 169.851 120.676 170.139 117.997" stroke="black" stroke-width="0.75" stroke-miterlimit="10"/>
<path d="M146.317 115.262C147.907 117.085 150.781 116.364 151.413 114.078C151.699 113.043 151.576 111.937 151.403 110.895" stroke="black" stroke-width="0.75" stroke-miterlimit="10"/>
<path d="M156.747 133.341C156.747 133.341 163.807 133.708 168.975 128.608" stroke="black" stroke-miterlimit="10"/>
<path d="M190.677 144.858C191.645 144.858 200.355 144.858 205.841 144.858C211.326 144.858 218.1 146.905 226.166 158.197C234.231 169.488 251.683 194.717 260.119 207.531C267.784 219.173 267.556 236.992 258.105 253.694C244.071 278.495 220.356 307.17 222.468 304.163L194.386 273.373L215.841 233.691L194.386 189.492" fill="#4692B3"/>
<path d="M218.074 232.243C225.528 226.937 235.188 224.84 244.171 226.575" stroke="black" stroke-miterlimit="10"/>
<path d="M120.357 179.246C113.128 226.969 108.589 275.033 106.766 323.181C106.766 323.181 119.965 315.146 123.709 290.819C123.709 290.819 131.569 315.094 156.404 323.181C181.533 331.366 216.968 323.914 227.992 312.363C239.014 300.812 212.535 177.1 212.535 177.1L196.531 140.222L152.51 142.217L120.357 179.246Z" fill="#4692B3"/>
<path d="M123.707 290.817L127.72 184.379" stroke="#5C7087" stroke-miterlimit="10"/>
<path d="M46.0774 196.161C41.6607 190.66 31.5523 163.115 34.1556 149.965C35.0376 145.512 37.2137 140.092 38.6548 137.658C41.4876 132.873 44.319 128.089 47.1517 123.304C47.3496 122.969 47.5556 122.626 47.8812 122.384C48.9033 121.624 50.578 122.334 51.1055 123.431C51.633 124.527 51.372 125.787 51.1014 126.956C52.3845 124.821 53.7706 122.584 56.0786 121.336C56.5059 121.105 57.0293 120.908 57.4881 121.081C58.0953 121.311 58.2286 122.02 58.274 122.612C58.4182 124.491 58.5638 126.37 58.7081 128.25C58.6325 127.325 60.2096 126.945 60.9982 127.538C61.7881 128.132 61.9433 129.154 62.0422 130.077C62.2332 131.853 62.4256 133.628 62.6165 135.405C62.3349 134.463 63.9519 133.834 64.838 134.392C65.7241 134.95 65.9411 136.034 66.0317 137.006C66.4466 141.433 65.7996 145.9 66.2502 150.324C67.6088 163.696 76.8381 174.086 76.8724 187.515" fill="#FFD1A6"/>
<path d="M79.9631 156.98C81.2317 159.654 79.9127 162.839 77.1249 163.833L55.2127 171.646C52.7946 172.508 50.1164 171.399 49.0161 169.079L29.065 127.025C27.7965 124.351 29.1154 121.166 31.9032 120.172L53.8146 112.359C56.2327 111.497 58.9109 112.606 60.0113 114.926L79.9631 156.98Z" fill="#121212"/>
<path d="M75.4033 155.239C76.146 156.825 75.3777 158.708 73.7373 159.321L55.0873 166.296C53.6302 166.84 51.9983 166.181 51.3287 164.777L33.8313 128.089C33.0712 126.495 33.8452 124.593 35.502 123.983L54.4647 116.996C55.9268 116.458 57.5579 117.128 58.2187 118.539L75.4033 155.239Z" fill="white"/>
<path d="M46.6777 141.975L53.8089 145.217L58.9952 130.954" stroke="#4692B3" stroke-width="3"/>
<path d="M35.6445 154.356C35.6445 154.356 41.0256 144.323 46.279 139.288C46.5318 139.046 46.8038 138.799 47.1445 138.717C48.1075 138.482 48.822 139.634 48.9703 140.614C49.7685 145.882 44.4093 150.83 45.7337 155.991C46.3285 158.308 48.1611 160.063 49.8454 161.762C53.3225 165.269 55.4381 170.384 55.4381 182.265" fill="#FFD1A6"/>
<path d="M42.7784 144.069C39.3205 147.866 35.7528 151.856 34.3652 156.801" stroke="black" stroke-width="0.75" stroke-miterlimit="10"/>
<path d="M45.7405 152.464C45.3778 153.72 44.7376 155.679 45.1154 156.987C45.5852 158.609 47.6445 160.335 48.8425 161.461C49.8138 162.375 50.8578 163.225 51.6945 164.261C52.6616 165.46 53.3224 166.874 53.8294 168.325C55.6153 173.435 55.5576 178.976 55.3144 184.377" stroke="black" stroke-width="0.75" stroke-miterlimit="10"/>
<path d="M147.747 150.43L153.11 137.707H198.786L200.847 150.43" fill="#4692B3"/>
<path d="M167.599 144.858C167.599 144.858 142.02 144.858 133.323 144.858C124.625 144.858 109.572 152.154 101.878 170.436C94.1845 188.719 88.497 199.808 88.497 199.808L76.8733 179.542L39.6367 197.449C39.6367 197.449 55.5548 229.11 64.2441 242.845C71.6543 254.556 77.6193 263.732 93.341 262.832C109.063 261.934 118.262 245.063 124.592 234.945C131.951 223.184 151.386 181.525 151.386 181.525" fill="#4692B3"/>
<path d="M128.22 145.377C141.001 154.958 146.317 171.037 145.918 186.773" stroke="#5C7087" stroke-miterlimit="10"/>
<path d="M214.704 147.637C219.297 159.028 219.844 169.994 218.172 187.725" stroke="#5C7087" stroke-miterlimit="10"/>
<path d="M88.498 199.808L76.873 226.538" stroke="black" stroke-miterlimit="10"/>
<path d="M111.298 253.575C111.298 253.575 121.476 243.46 128.568 227.859C135.659 212.259 147.749 182.263 147.749 182.263" stroke="black" stroke-miterlimit="10"/>
<path d="M149.983 145.127H199.988" stroke="black" stroke-miterlimit="10"/>
<path d="M81.5676 187.725L45 207.235" stroke="#5C7087" stroke-miterlimit="10"/>
<path d="M231.123 295.273C231.112 293.149 219.806 199.731 216.496 177.513" stroke="black" stroke-miterlimit="10"/>
<path d="M144.096 169.4C169.048 168.153 194.12 168.333 219.036 169.939" stroke="#5C7087" stroke-miterlimit="10"/>
<path d="M181.566 169.26L190.677 326.095" stroke="#5C7087" stroke-miterlimit="10"/>
<path d="M190.677 169.26L203.658 322.305" stroke="#5C7087" stroke-miterlimit="10"/>
<path d="M167.13 284.466C180.083 273.416 192.295 261.497 203.658 248.815" stroke="black" stroke-miterlimit="10"/>
<path d="M192.389 296.752C195.569 288.677 198.749 280.602 201.928 272.527" stroke="black" stroke-miterlimit="10"/>
<path d="M313.325 293.406L281.355 307.988L311.6 281.611C305.345 248.679 288.075 216.337 288.075 216.337C288.075 216.337 219.517 249.272 206.655 288.586C193.792 327.899 212.67 349.271 241.496 358.703C270.323 368.134 298.182 362.053 311.045 322.74C313.908 313.989 314.354 303.862 313.325 293.406Z" fill="#E3B133"/>
<path d="M274.636 307.146L274.002 309.084C266.517 331.571 256.969 347.902 245.467 357.839C245.302 357.987 245.13 358.122 244.965 358.27L244.297 357.488L243.664 356.729C256.305 346.071 265.41 328.139 271.944 308.527C272.16 307.897 272.38 307.257 272.581 306.612C275.273 298.285 277.518 289.705 279.377 281.265C279.526 280.613 279.669 279.949 279.812 279.284C282.208 268.131 283.949 257.294 285.208 247.798C285.3 247.127 285.382 246.453 285.462 245.789C287.527 229.706 288.17 217.778 288.293 215.131C288.313 214.809 288.319 214.63 288.322 214.588L289.317 214.627L289.33 214.621L290.336 214.663C290.333 214.705 290.317 215.305 290.253 216.41C290.036 220.544 289.329 231.729 287.497 246.189C287.411 246.841 287.329 247.515 287.237 248.186C286.223 255.893 284.901 264.445 283.169 273.309C282.737 275.536 282.287 277.725 281.817 279.876C281.683 280.544 281.54 281.208 281.39 281.86C279.382 290.984 277.131 299.413 274.636 307.146Z" fill="white"/>
<path d="M287.496 246.189C286.825 246.065 286.145 245.938 285.461 245.789C283.603 245.386 281.767 244.888 279.96 244.297C272.256 241.788 265.214 237.582 259.351 231.989C258.782 232.366 258.213 232.742 257.631 233.126C263.773 239.085 271.196 243.563 279.332 246.216C281.261 246.846 283.222 247.374 285.207 247.798C285.881 247.944 286.562 248.071 287.236 248.185C292.79 249.16 298.46 249.286 304.051 248.558C303.811 247.895 303.578 247.245 303.351 246.608C298.074 247.25 292.732 247.109 287.496 246.189Z" fill="white"/>
<path d="M281.817 279.876C281.142 279.698 280.474 279.5 279.812 279.284C279.608 279.228 279.397 279.158 279.195 279.093C270.851 276.363 263.291 271.656 257.16 265.372C251.028 259.089 246.507 251.416 243.981 243.007C243.412 243.448 242.844 243.888 242.281 244.341C244.982 252.897 249.682 260.686 255.992 267.063C262.303 273.44 270.041 278.221 278.568 281.011C278.836 281.099 279.105 281.187 279.377 281.265C280.051 281.475 280.719 281.673 281.391 281.86C291.804 284.686 302.811 284.453 313.095 281.189C312.974 280.522 312.852 279.856 312.72 279.186C302.706 282.419 291.965 282.658 281.817 279.876Z" fill="white"/>
<path d="M274.635 307.146C273.945 306.984 273.261 306.802 272.58 306.611C271.851 306.405 271.126 306.189 270.406 305.953C259.199 302.272 249.485 295.059 242.719 285.394C235.954 275.73 232.501 264.133 232.877 252.341C232.191 252.977 231.509 253.604 230.842 254.246C230.872 266.143 234.651 277.728 241.641 287.355C248.631 296.982 258.476 304.161 269.779 307.872C270.498 308.107 271.221 308.333 271.943 308.527C272.63 308.73 273.314 308.912 274.001 309.083C287.911 312.46 302.584 310.423 315.049 303.387C315.08 302.611 315.079 301.835 315.081 301.05C302.904 308.264 288.396 310.451 274.635 307.146Z" fill="white"/>
<path d="M154.806 308.311L140.445 333.854L147.845 301.214C127.437 282.109 99.899 268.818 99.899 268.818C99.899 268.818 69.9184 324.717 80.5882 357.521C91.258 390.326 114.483 395.438 138.538 387.614C162.592 379.791 178.366 361.994 167.696 329.189C165.322 321.888 160.642 314.847 154.806 308.311Z" fill="#779F59"/>
<path d="M135.504 336.591L136.03 338.208C142.047 357.035 143.648 372.731 140.787 385.08C140.749 385.261 140.699 385.436 140.661 385.617L139.827 385.419L139.027 385.219C142.3 371.824 139.614 355.268 134.37 338.845C134.206 338.314 134.04 337.775 133.857 337.242C131.576 330.309 128.868 323.427 125.97 316.828C125.75 316.315 125.519 315.797 125.289 315.279C121.418 306.589 117.261 298.434 113.439 291.418C113.171 290.921 112.895 290.427 112.622 289.94C106.104 278.092 100.671 269.742 99.4521 267.899C99.3074 267.671 99.2231 267.548 99.2047 267.519L99.8948 267.055L99.9002 267.045L100.598 266.579C100.617 266.608 100.901 267.02 101.401 267.796C103.289 270.687 108.313 278.569 114.19 289.209C114.453 289.69 114.728 290.185 114.996 290.682C118.104 296.372 121.419 302.782 124.611 309.604C125.416 311.316 126.189 313.012 126.93 314.692C127.169 315.208 127.399 315.726 127.619 316.238C130.753 323.372 133.382 330.156 135.504 336.591Z" fill="white"/>
<path d="M114.19 289.209C113.677 289.455 113.157 289.705 112.622 289.94C111.173 290.582 109.691 291.15 108.184 291.641C101.761 293.739 94.949 294.37 88.2499 293.486C88.0517 294.019 87.8535 294.553 87.65 295.097C94.7179 296.091 101.919 295.456 108.704 293.242C110.314 292.718 111.894 292.109 113.44 291.418C113.966 291.185 114.486 290.936 114.997 290.682C119.217 288.607 123.097 285.903 126.506 282.663C126.018 282.335 125.542 282.012 125.075 281.694C121.837 284.722 118.169 287.254 114.19 289.209Z" fill="white"/>
<path d="M126.93 314.692C126.388 314.904 125.841 315.099 125.289 315.279C125.123 315.342 124.947 315.399 124.779 315.454C117.817 317.718 110.41 318.266 103.19 317.049C95.9698 315.832 89.151 312.887 83.3148 308.466C83.1482 309.042 82.9817 309.619 82.8257 310.2C88.8522 314.635 95.8484 317.57 103.235 318.762C110.621 319.954 118.185 319.368 125.3 317.055C125.524 316.982 125.748 316.909 125.97 316.828C126.527 316.638 127.074 316.442 127.619 316.238C136.022 313.021 143.321 307.451 148.643 300.194C148.233 299.805 147.824 299.416 147.406 299.03C142.25 306.132 135.134 311.575 126.93 314.692Z" fill="white"/>
<path d="M135.504 336.591C134.96 336.821 134.41 337.036 133.857 337.242C133.265 337.461 132.67 337.672 132.069 337.868C122.71 340.9 112.62 340.819 103.311 337.636C94.001 334.453 85.9724 328.341 80.4269 320.213C80.2776 320.979 80.1257 321.736 79.9924 322.497C85.8638 330.495 94.106 336.44 103.548 339.487C112.99 342.534 123.152 342.527 132.59 339.469C133.19 339.273 133.788 339.07 134.37 338.845C134.933 338.645 135.483 338.43 136.03 338.208C147.059 333.642 155.941 325.054 160.876 314.185C160.515 313.647 160.133 313.125 159.749 312.595C155.095 323.443 146.398 332.05 135.504 336.591Z" fill="white"/>
</g>
</svg>
