<svg width="88" height="88" viewBox="0 0 88 88" fill="none" xmlns="http://www.w3.org/2000/svg">
<path d="M57.9338 8.10333C56.4305 6.59999 53.8271 7.62666 53.8271 9.71666V22.5133C53.8271 27.8667 58.3738 32.3033 63.9105 32.3033C67.3938 32.34 72.2338 32.34 76.3771 32.34C78.4671 32.34 79.5671 29.8833 78.1005 28.4167C72.8205 23.1 63.3605 13.53 57.9338 8.10333Z" fill="#B8B8B8"/>
<path d="M75.167 37.3633H64.5703C55.8803 37.3633 48.8037 30.2867 48.8037 21.5967V11C48.8037 8.98334 47.1537 7.33334 45.137 7.33334H29.5903C18.297 7.33334 9.16699 14.6667 9.16699 27.7567V60.2433C9.16699 73.3333 18.297 80.6667 29.5903 80.6667H58.4103C69.7037 80.6667 78.8337 73.3333 78.8337 60.2433V41.03C78.8337 39.0133 77.1837 37.3633 75.167 37.3633ZM42.167 65.0833H27.5003C25.997 65.0833 24.7503 63.8367 24.7503 62.3333C24.7503 60.83 25.997 59.5833 27.5003 59.5833H42.167C43.6703 59.5833 44.917 60.83 44.917 62.3333C44.917 63.8367 43.6703 65.0833 42.167 65.0833ZM49.5003 50.4167H27.5003C25.997 50.4167 24.7503 49.17 24.7503 47.6667C24.7503 46.1633 25.997 44.9167 27.5003 44.9167H49.5003C51.0037 44.9167 52.2503 46.1633 52.2503 47.6667C52.2503 49.17 51.0037 50.4167 49.5003 50.4167Z" fill="#B8B8B8"/>
</svg>
