<svg width="20" height="20" viewBox="0 0 20 20" fill="none" xmlns="http://www.w3.org/2000/svg">
<path d="M10.0003 1.66666C7.81699 1.66666 6.04199 3.44166 6.04199 5.62499C6.04199 7.76666 7.71699 9.49999 9.90033 9.57499C9.96699 9.56666 10.0337 9.56666 10.0837 9.57499C10.1003 9.57499 10.1087 9.57499 10.1253 9.57499C10.1337 9.57499 10.1337 9.57499 10.142 9.57499C12.2753 9.49999 13.9503 7.76666 13.9587 5.62499C13.9587 3.44166 12.1837 1.66666 10.0003 1.66666Z" fill="white"/>
<path d="M14.2338 11.7917C11.9088 10.2417 8.11712 10.2417 5.77546 11.7917C4.71712 12.5 4.13379 13.4583 4.13379 14.4833C4.13379 15.5083 4.71712 16.4583 5.76712 17.1583C6.93379 17.9417 8.46712 18.3333 10.0005 18.3333C11.5338 18.3333 13.0671 17.9417 14.2338 17.1583C15.2838 16.45 15.8671 15.5 15.8671 14.4667C15.8588 13.4417 15.2838 12.4917 14.2338 11.7917Z" fill="white"/>
</svg>
