<svg width="85" height="982" viewBox="0 0 85 982" fill="none" xmlns="http://www.w3.org/2000/svg">
<rect width="85" height="982" fill="url(#paint0_linear_12_351)"/>
<path d="M36.6537 39.6667H34.1203C31.2003 39.6667 29.667 41.2 29.667 44.1067V46.64C29.667 49.5467 31.2003 51.08 34.107 51.08H36.6403C39.547 51.08 41.0803 49.5467 41.0803 46.64V44.1067C41.0937 41.2 39.5603 39.6667 36.6537 39.6667Z" fill="white"/>
<path d="M51.8933 39.6667H49.3599C46.4533 39.6667 44.9199 41.2 44.9199 44.1067V46.64C44.9199 49.5467 46.4533 51.08 49.3599 51.08H51.8933C54.7999 51.08 56.3333 49.5467 56.3333 46.64V44.1067C56.3333 41.2 54.7999 39.6667 51.8933 39.6667Z" fill="white"/>
<path d="M51.8933 54.9067H49.3599C46.4533 54.9067 44.9199 56.44 44.9199 59.3467V61.88C44.9199 64.7867 46.4533 66.32 49.3599 66.32H51.8933C54.7999 66.32 56.3333 64.7867 56.3333 61.88V59.3467C56.3333 56.44 54.7999 54.9067 51.8933 54.9067Z" fill="white"/>
<path d="M36.6537 54.9067H34.1203C31.2003 54.9067 29.667 56.44 29.667 59.3467V61.88C29.667 64.8 31.2003 66.3333 34.107 66.3333H36.6403C39.547 66.3333 41.0803 64.8 41.0803 61.8933V59.36C41.0937 56.44 39.5603 54.9067 36.6537 54.9067Z" fill="white"/>
<path d="M39.0003 643.667C35.507 643.667 32.667 646.507 32.667 650C32.667 653.427 35.347 656.2 38.8403 656.32C38.947 656.307 39.0537 656.307 39.1337 656.32C39.1603 656.32 39.1737 656.32 39.2003 656.32C39.2137 656.32 39.2137 656.32 39.227 656.32C42.6403 656.2 45.3203 653.427 45.3337 650C45.3337 646.507 42.4937 643.667 39.0003 643.667Z" fill="white"/>
<path d="M45.7733 659.867C42.0533 657.387 35.9866 657.387 32.2399 659.867C30.5466 661 29.6133 662.533 29.6133 664.173C29.6133 665.813 30.5466 667.333 32.2266 668.453C34.0933 669.707 36.5466 670.333 38.9999 670.333C41.4533 670.333 43.9066 669.707 45.7733 668.453C47.4533 667.32 48.3866 665.8 48.3866 664.147C48.3733 662.507 47.4533 660.987 45.7733 659.867Z" fill="white"/>
<path d="M53.6535 650.787C53.8668 653.373 52.0268 655.64 49.4801 655.947C49.4668 655.947 49.4668 655.947 49.4535 655.947H49.4135C49.3335 655.947 49.2535 655.947 49.1868 655.973C47.8935 656.04 46.7068 655.627 45.8135 654.867C47.1868 653.64 47.9735 651.8 47.8135 649.8C47.7201 648.72 47.3468 647.733 46.7868 646.893C47.2935 646.64 47.8801 646.48 48.4801 646.427C51.0935 646.2 53.4268 648.147 53.6535 650.787Z" fill="white"/>
<path d="M56.32 663.12C56.2133 664.413 55.3867 665.533 54 666.293C52.6667 667.027 50.9867 667.373 49.32 667.333C50.28 666.467 50.84 665.387 50.9467 664.24C51.08 662.587 50.2933 661 48.72 659.733C47.8267 659.027 46.7867 658.467 45.6533 658.053C48.6 657.2 52.3067 657.773 54.5867 659.613C55.8133 660.6 56.44 661.84 56.32 663.12Z" fill="white"/>
<path d="M48.587 820.667H37.4137C32.5603 820.667 29.667 823.56 29.667 828.413V839.573C29.667 844.44 32.5603 847.333 37.4137 847.333H48.5737C53.427 847.333 56.3203 844.44 56.3203 839.587V828.413C56.3337 823.56 53.4403 820.667 48.587 820.667ZM38.2937 829.973L42.2937 825.973C42.387 825.88 42.4937 825.813 42.6137 825.76C42.8537 825.653 43.1337 825.653 43.3737 825.76C43.4937 825.813 43.6003 825.88 43.6937 825.973L47.6937 829.973C48.0803 830.36 48.0803 831 47.6937 831.387C47.4937 831.587 47.2403 831.68 46.987 831.68C46.7337 831.68 46.4803 831.587 46.2803 831.387L43.987 829.093V837.347C43.987 837.893 43.5337 838.347 42.987 838.347C42.4403 838.347 41.987 837.893 41.987 837.347V829.093L39.6937 831.387C39.307 831.773 38.667 831.773 38.2803 831.387C37.8937 831 37.907 830.373 38.2937 829.973ZM51.3203 840.96C48.6403 841.853 45.827 842.307 43.0003 842.307C40.1737 842.307 37.3603 841.853 34.6803 840.96C34.1603 840.787 33.8803 840.213 34.0537 839.693C34.227 839.173 34.8003 838.88 35.3203 839.067C40.2803 840.72 45.7337 840.72 50.6937 839.067C51.2137 838.893 51.787 839.173 51.9603 839.693C52.1203 840.227 51.8403 840.787 51.3203 840.96Z" fill="white"/>
<path d="M22 866H64" stroke="#2ABCFA"/>
<path d="M22 705H64" stroke="#2ABCFA"/>
<path d="M48.587 723.667H37.4137C32.5603 723.667 29.667 726.56 29.667 731.413V742.573C29.667 747.44 32.5603 750.333 37.4137 750.333H48.5737C53.427 750.333 56.3203 747.44 56.3203 742.587V731.413C56.3337 726.56 53.4403 723.667 48.587 723.667ZM38.2937 735.64C38.6803 735.253 39.3203 735.253 39.707 735.64L42.0003 737.933V729.68C42.0003 729.133 42.4537 728.68 43.0003 728.68C43.547 728.68 44.0003 729.133 44.0003 729.68V737.933L46.2937 735.64C46.6803 735.253 47.3203 735.253 47.707 735.64C48.0937 736.027 48.0937 736.667 47.707 737.053L43.707 741.053C43.6137 741.147 43.507 741.213 43.387 741.267C43.267 741.32 43.1337 741.347 43.0003 741.347C42.867 741.347 42.747 741.32 42.6137 741.267C42.4937 741.213 42.387 741.147 42.2937 741.053L38.2937 737.053C37.907 736.667 37.907 736.04 38.2937 735.64ZM51.3203 743.96C48.6403 744.853 45.827 745.307 43.0003 745.307C40.1737 745.307 37.3603 744.853 34.6803 743.96C34.1603 743.787 33.8803 743.213 34.0537 742.693C34.227 742.173 34.787 741.88 35.3203 742.067C40.2803 743.72 45.7337 743.72 50.6937 742.067C51.2137 741.893 51.787 742.173 51.9603 742.693C52.1203 743.227 51.8403 743.787 51.3203 743.96Z" fill="white"/>
<path d="M46.1333 772.667H39.8667C38.48 772.667 37.3467 773.787 37.3467 775.173V776.427C37.3467 777.813 38.4667 778.933 39.8533 778.933H46.1333C47.52 778.933 48.64 777.813 48.64 776.427V775.173C48.6533 773.787 47.52 772.667 46.1333 772.667Z" fill="#2ABCFA"/>
<path d="M49.9867 776.427C49.9867 778.547 48.2534 780.28 46.1334 780.28H39.8667C37.7467 780.28 36.0134 778.547 36.0134 776.427C36.0134 775.68 35.2134 775.213 34.5467 775.56C32.6667 776.56 31.3867 778.547 31.3867 780.827V793.373C31.3867 796.653 34.0667 799.333 37.3467 799.333H48.6534C51.9334 799.333 54.6134 796.653 54.6134 793.373V780.827C54.6134 778.547 53.3334 776.56 51.4534 775.56C50.7867 775.213 49.9867 775.68 49.9867 776.427ZM47.4534 786.973L42.1201 792.307C41.9201 792.507 41.6667 792.6 41.4134 792.6C41.1601 792.6 40.9067 792.507 40.7067 792.307L38.7067 790.307C38.3201 789.92 38.3201 789.28 38.7067 788.893C39.0934 788.507 39.7334 788.507 40.1201 788.893L41.4134 790.187L46.0401 785.56C46.4267 785.173 47.0667 785.173 47.4534 785.56C47.8401 785.947 47.8401 786.587 47.4534 786.973Z" fill="#2ABCFA"/>
<path d="M53.8003 910.293C51.387 910.293 50.4003 908.587 51.6003 906.493C52.2937 905.28 51.8803 903.733 50.667 903.04L48.3603 901.72C47.307 901.093 45.947 901.467 45.3203 902.52L45.1737 902.773C43.9737 904.867 42.0003 904.867 40.787 902.773L40.6403 902.52C40.0403 901.467 38.6803 901.093 37.627 901.72L35.3203 903.04C34.107 903.733 33.6937 905.293 34.387 906.507C35.6003 908.587 34.6137 910.293 32.2003 910.293C30.8137 910.293 29.667 911.427 29.667 912.827V915.173C29.667 916.56 30.8003 917.707 32.2003 917.707C34.6137 917.707 35.6003 919.413 34.387 921.507C33.6937 922.72 34.107 924.267 35.3203 924.96L37.627 926.28C38.6803 926.907 40.0403 926.533 40.667 925.48L40.8137 925.227C42.0137 923.133 43.987 923.133 45.2003 925.227L45.347 925.48C45.9737 926.533 47.3337 926.907 48.387 926.28L50.6937 924.96C51.907 924.267 52.3203 922.707 51.627 921.507C50.4137 919.413 51.4003 917.707 53.8137 917.707C55.2003 917.707 56.347 916.573 56.347 915.173V912.827C56.3337 911.44 55.2003 910.293 53.8003 910.293ZM43.0003 918.333C40.6137 918.333 38.667 916.387 38.667 914C38.667 911.613 40.6137 909.667 43.0003 909.667C45.387 909.667 47.3337 911.613 47.3337 914C47.3337 916.387 45.387 918.333 43.0003 918.333Z" fill="white"/>
<defs>
<linearGradient id="paint0_linear_12_351" x1="42.5" y1="0" x2="42.5" y2="982" gradientUnits="userSpaceOnUse">
<stop stop-color="#121212"/>
<stop offset="1" stop-color="#002636"/>
</linearGradient>
</defs>
</svg>
