<svg width="32" height="32" viewBox="0 0 32 32" fill="none" xmlns="http://www.w3.org/2000/svg">
<path d="M9.65317 2.66666H7.11984C4.19984 2.66666 2.6665 4.19999 2.6665 7.10666V9.63999C2.6665 12.5467 4.19984 14.08 7.1065 14.08H9.63984C12.5465 14.08 14.0798 12.5467 14.0798 9.63999V7.10666C14.0932 4.19999 12.5598 2.66666 9.65317 2.66666Z" fill="#2ABCFA"/>
<path d="M24.8933 2.66666H22.3599C19.4533 2.66666 17.9199 4.19999 17.9199 7.10666V9.63999C17.9199 12.5467 19.4533 14.08 22.3599 14.08H24.8933C27.7999 14.08 29.3333 12.5467 29.3333 9.63999V7.10666C29.3333 4.19999 27.7999 2.66666 24.8933 2.66666Z" fill="#2ABCFA"/>
<path d="M24.8933 17.9067H22.3599C19.4533 17.9067 17.9199 19.44 17.9199 22.3467V24.88C17.9199 27.7867 19.4533 29.32 22.3599 29.32H24.8933C27.7999 29.32 29.3333 27.7867 29.3333 24.88V22.3467C29.3333 19.44 27.7999 17.9067 24.8933 17.9067Z" fill="#2ABCFA"/>
<path d="M9.65317 17.9067H7.11984C4.19984 17.9067 2.6665 19.44 2.6665 22.3467V24.88C2.6665 27.8 4.19984 29.3333 7.1065 29.3333H9.63984C12.5465 29.3333 14.0798 27.8 14.0798 24.8933V22.36C14.0932 19.44 12.5598 17.9067 9.65317 17.9067Z" fill="#2ABCFA"/>
</svg>
