<svg width="32" height="32" viewBox="0 0 32 32" fill="none" xmlns="http://www.w3.org/2000/svg">
<path d="M21.5865 2.66666H10.4132C5.55984 2.66666 2.6665 5.55999 2.6665 10.4133V21.5733C2.6665 26.44 5.55984 29.3333 10.4132 29.3333H21.5732C26.4265 29.3333 29.3198 26.44 29.3198 21.5867V10.4133C29.3332 5.55999 26.4398 2.66666 21.5865 2.66666ZM11.2932 11.9733L15.2932 7.97332C15.3865 7.87999 15.4932 7.81332 15.6132 7.75999C15.8532 7.65332 16.1332 7.65332 16.3732 7.75999C16.4932 7.81332 16.5998 7.87999 16.6932 7.97332L20.6932 11.9733C21.0798 12.36 21.0798 13 20.6932 13.3867C20.4932 13.5867 20.2398 13.68 19.9865 13.68C19.7332 13.68 19.4798 13.5867 19.2798 13.3867L16.9865 11.0933V19.3467C16.9865 19.8933 16.5332 20.3467 15.9865 20.3467C15.4398 20.3467 14.9865 19.8933 14.9865 19.3467V11.0933L12.6932 13.3867C12.3065 13.7733 11.6665 13.7733 11.2798 13.3867C10.8932 13 10.9065 12.3733 11.2932 11.9733ZM24.3198 22.96C21.6398 23.8533 18.8265 24.3067 15.9998 24.3067C13.1732 24.3067 10.3598 23.8533 7.67984 22.96C7.15984 22.7867 6.87984 22.2133 7.05317 21.6933C7.2265 21.1733 7.79984 20.88 8.31984 21.0667C13.2798 22.72 18.7332 22.72 23.6932 21.0667C24.2132 20.8933 24.7865 21.1733 24.9598 21.6933C25.1198 22.2267 24.8398 22.7867 24.3198 22.96Z" fill="white"/>
</svg>
