<svg width="32" height="32" viewBox="0 0 32 32" fill="none" xmlns="http://www.w3.org/2000/svg">
<path d="M19.1333 2.66666H12.8667C11.48 2.66666 10.3467 3.78666 10.3467 5.17332V6.42666C10.3467 7.81332 11.4667 8.93332 12.8533 8.93332H19.1333C20.52 8.93332 21.64 7.81332 21.64 6.42666V5.17332C21.6533 3.78666 20.52 2.66666 19.1333 2.66666Z" fill="#2ABCFA"/>
<path d="M22.9867 6.42667C22.9867 8.54667 21.2534 10.28 19.1334 10.28H12.8667C10.7467 10.28 9.01339 8.54667 9.01339 6.42667C9.01339 5.68 8.21339 5.21334 7.54672 5.56C5.66672 6.56 4.38672 8.54667 4.38672 10.8267V23.3733C4.38672 26.6533 7.06672 29.3333 10.3467 29.3333H21.6534C24.9334 29.3333 27.6134 26.6533 27.6134 23.3733V10.8267C27.6134 8.54667 26.3334 6.56 24.4534 5.56C23.7867 5.21334 22.9867 5.68 22.9867 6.42667ZM20.4534 16.9733L15.1201 22.3067C14.9201 22.5067 14.6667 22.6 14.4134 22.6C14.1601 22.6 13.9067 22.5067 13.7067 22.3067L11.7067 20.3067C11.3201 19.92 11.3201 19.28 11.7067 18.8933C12.0934 18.5067 12.7334 18.5067 13.1201 18.8933L14.4134 20.1867L19.0401 15.56C19.4267 15.1733 20.0667 15.1733 20.4534 15.56C20.8401 15.9467 20.8401 16.5867 20.4534 16.9733Z" fill="#2ABCFA"/>
</svg>
