<svg width="32" height="32" viewBox="0 0 32 32" fill="none" xmlns="http://www.w3.org/2000/svg">
<path d="M21.5865 2.66666H10.4132C5.55984 2.66666 2.6665 5.55999 2.6665 10.4133V21.5733C2.6665 26.44 5.55984 29.3333 10.4132 29.3333H21.5732C26.4265 29.3333 29.3198 26.44 29.3198 21.5867V10.4133C29.3332 5.55999 26.4398 2.66666 21.5865 2.66666ZM11.2932 14.64C11.6798 14.2533 12.3198 14.2533 12.7065 14.64L14.9998 16.9333V8.67999C14.9998 8.13332 15.4532 7.67999 15.9998 7.67999C16.5465 7.67999 16.9998 8.13332 16.9998 8.67999V16.9333L19.2932 14.64C19.6798 14.2533 20.3198 14.2533 20.7065 14.64C21.0932 15.0267 21.0932 15.6667 20.7065 16.0533L16.7065 20.0533C16.6132 20.1467 16.5065 20.2133 16.3865 20.2667C16.2665 20.32 16.1332 20.3467 15.9998 20.3467C15.8665 20.3467 15.7465 20.32 15.6132 20.2667C15.4932 20.2133 15.3865 20.1467 15.2932 20.0533L11.2932 16.0533C10.9065 15.6667 10.9065 15.04 11.2932 14.64ZM24.3198 22.96C21.6398 23.8533 18.8265 24.3067 15.9998 24.3067C13.1732 24.3067 10.3598 23.8533 7.67984 22.96C7.15984 22.7867 6.87984 22.2133 7.05317 21.6933C7.2265 21.1733 7.7865 20.88 8.31984 21.0667C13.2798 22.72 18.7332 22.72 23.6932 21.0667C24.2132 20.8933 24.7865 21.1733 24.9598 21.6933C25.1198 22.2267 24.8398 22.7867 24.3198 22.96Z" fill="#2ABCFA"/>
</svg>
